<svg width="40" height="40" viewBox="0 0 40 40" fill="none" xmlns="http://www.w3.org/2000/svg">
<path d="M20 30.5C14.21 30.5 9.5 25.79 9.5 20C9.5 14.21 14.21 9.5 20 9.5C25.79 9.5 30.5 14.21 30.5 20C30.5 25.79 25.79 30.5 20 30.5ZM20 11C15.035 11 11 15.035 11 20C11 24.965 15.035 29 20 29C24.965 29 29 24.965 29 20C29 15.035 24.965 11 20 11Z" fill="#757575"/>
<path d="M20 14.75C18.335 14.75 17 16.085 17 17.75H18.5C18.5 16.925 19.175 16.25 20 16.25C20.825 16.25 21.5 16.925 21.5 17.75C21.5 19.25 19.25 19.07 19.25 21.5H20.75C20.75 19.82 23 19.625 23 17.75C23 16.085 21.665 14.75 20 14.75Z" fill="#757575"/>
<path d="M20.0003 25.4303C20.5139 25.4303 20.9303 25.0139 20.9303 24.5003C20.9303 23.9867 20.5139 23.5703 20.0003 23.5703C19.4867 23.5703 19.0703 23.9867 19.0703 24.5003C19.0703 25.0139 19.4867 25.4303 20.0003 25.4303Z" fill="#757575"/>
<path d="M17.75 18.5C18.1642 18.5 18.5 18.1642 18.5 17.75C18.5 17.3358 18.1642 17 17.75 17C17.3358 17 17 17.3358 17 17.75C17 18.1642 17.3358 18.5 17.75 18.5Z" fill="#757575"/>
<path d="M20 22.25C20.4142 22.25 20.75 21.9142 20.75 21.5C20.75 21.0858 20.4142 20.75 20 20.75C19.5858 20.75 19.25 21.0858 19.25 21.5C19.25 21.9142 19.5858 22.25 20 22.25Z" fill="#757575"/>
</svg>
