<svg width="2350" height="541" viewBox="0 0 2350 541" fill="none" xmlns="http://www.w3.org/2000/svg">
<g clip-path="url(#clip0_25177_43252)">
<path d="M1196.4 174.2C1192.9 198.5 1189.9 219.5 1189.7 220.8L1189.3 223.3H1172.4C1163.1 223.3 1155.4 223.3 1155.4 223.4C1155.4 223.6 1154.8 228.9 1153.9 235.4C1153.1 241.8 1152.4 247.9 1152.4 248.8V250.5H1169.1C1181.9 250.5 1185.7 250.7 1185.7 251.4C1185.6 252 1179.6 294.8 1172.2 346.7L1158.8 441L1172.3 441.2C1179.8 441.3 1186.1 441.3 1186.2 441.1C1186.4 440.9 1192.5 398.7 1199.8 347.4C1207.1 295.9 1213.2 253.2 1213.3 252.2L1213.7 250.5H1238.3H1262.9L1263.2 247.3C1264.6 237.4 1266 225.8 1266 224.6C1266 223.3 1264.5 223.3 1241.7 223.3H1217.5V221.5C1217.5 220.6 1220.4 199.8 1223.9 175.3C1227.5 150.9 1230.4 130.6 1230.4 130.5C1230.4 130.3 1224.2 130.1 1216.5 130.1H1202.7L1196.4 174.2Z" fill="#353535"/>
<path d="M554.7 151.8C550.1 153.4 545.7 157.5 543.4 162.3C541.6 165.9 541.4 167.1 541.7 172.3C542 178.9 543.3 182.4 547 186.1C559.6 199 580.3 189.6 580.3 170.9C580.3 156.8 567.5 147.2 554.7 151.8Z" fill="#353535"/>
<path d="M1713.7 151.3C1709.1 152.8 1704.1 156.8 1701.8 161C1696 171.3 1699.7 184.8 1709.9 190.2C1714.2 192.4 1722.3 192.4 1726.6 190.2C1733.5 186.5 1738.3 178.6 1738.3 171C1738.3 163.7 1733.7 155.9 1727.5 152.8C1724 150.9 1717.1 150.3 1713.7 151.3Z" fill="#353535"/>
<path d="M1106.4 153C1101.8 155.2 1097.4 160.6 1095.9 165.6C1091.9 179.2 1100.9 192.2 1114.2 192.2C1122.1 192.2 1128.1 188.4 1131.7 181.3C1137 171.1 1133.3 158.4 1123.7 153.4C1118.6 150.7 1111.4 150.6 1106.4 153Z" fill="#353535"/>
<path fill-rule="evenodd" clip-rule="evenodd" d="M2337.6 222.9C2345.5 230.6 2349.5 240.6 2349.5 252C2349.5 269.7 2339.5 284.3 2323 290.3C2317.7 292.3 2316.1 292.5 2308.7 292.5C2301.6 292.5 2299.7 292.2 2295.3 290.4C2284.4 286.2 2277.5 280 2272.7 269.8C2266.9 257.8 2267 246.2 2272.8 233.9C2278 223 2287.7 215.2 2299.7 212.3C2313.1 209.1 2327.7 213.2 2337.6 222.9ZM2275.6 247C2272.2 266.6 2288.7 285.3 2309.1 285.3C2325.5 285.3 2339.9 273.2 2342.6 257.1C2345.3 240.4 2334.5 224.4 2317.4 219.8C2298.6 214.8 2278.9 227.7 2275.6 247Z" fill="#353535"/>
<path fill-rule="evenodd" clip-rule="evenodd" d="M2290.9 230.7L2303.7 230.9C2314.8 231.2 2316.6 231.4 2319 232.8C2323.9 235.7 2326.3 242.6 2324.2 248C2323.1 251 2319.1 254.9 2316.1 255.9L2313.5 256.7L2315.9 258.8C2317.1 259.8 2320.4 264.1 2323.1 268.3L2328.1 275.9L2324.6 276.1C2322.6 276.3 2320.6 276.2 2320.2 276C2319.7 275.8 2317.4 272.5 2315.2 268.7C2309.8 259.7 2308 258.1 2302.6 258.1H2298.5V276.3H2290.9V230.7ZM2305 238.4H2298.5V250.5H2305C2314.9 250.5 2318.5 248.1 2317.1 242.5C2316.8 241.3 2315.7 240.2 2314 239.4C2312.4 238.8 2308.9 238.4 2305 238.4Z" fill="#353535"/>
<path fill-rule="evenodd" clip-rule="evenodd" d="M739.5 221.1C750.3 222.6 759.6 225.4 769 230C779.6 235.2 786.4 240.1 794.5 248.5L800.3 254.5L800.8 252C801.7 246.4 804.9 225.1 804.9 224.2C804.9 223.5 808.3 223.3 818.9 223.3H833L832.6 225.7C832.3 227 825.5 275.4 817.4 333C809.3 390.6 801.9 441 801.1 445C798.9 455 795 465.9 790.1 475.8C773.7 508.8 741.4 532.7 704.7 539C675.8 543.9 642.5 539.9 621.4 528.9C599.6 517.7 587.6 498.7 583.6 469.5L583.1 466.3H610.8L611.8 472.6C614.6 492.1 630.1 505 658.2 511.2C665 512.6 668.2 512.8 683.1 512.8C702.3 512.8 708.6 511.9 721.4 507.1C746.7 497.5 765.7 475.3 772.7 446.9C774.6 439.2 778.8 412.7 778.2 412.1C778.1 411.9 776 413.3 773.8 415.2C749.9 435.7 719.2 446.3 687.7 444.9C667 444.1 651.1 439.2 635.8 429.1C628.4 424.4 616 412 610.5 404C597.6 385.2 592.5 363 595.3 337.7C599 304.9 612.1 278.5 636 255.7C656.1 236.6 682.8 223.6 708 220.8C714 220.1 734 220.3 739.5 221.1ZM711.9 247.6C672.2 251 635.3 282.5 625.5 321.2C618.4 349.3 622.4 371.7 637.6 391C654.4 412.1 681.3 421.5 711.1 416.7C748.8 410.6 783.4 378.7 792.1 341.8C796.8 321.8 795.2 303.5 787.2 287.2C777.2 267.2 758.1 252.5 736.8 248.8C728.1 247.2 720.4 246.9 711.9 247.6Z" fill="#353535"/>
<path d="M951.8 220.7C933.9 222.7 926.6 224.5 916.5 229.5C913 231.2 908 234.3 905.5 236.3C900.4 240.5 900.5 240.7 902.1 229.8L903.1 223.3H889.3H875.4L875 225.7C874.1 230.8 845.1 438.8 845.1 440C845.1 441.3 846.2 441.3 858.6 441.3H872.2L872.6 439.3C872.8 438.1 877.2 407.6 882.2 371.4C887.2 335.2 892.1 302.5 893.1 298.5C895.5 289.3 900.8 278.1 906.2 271C919 254.3 938.7 246.3 962.9 247.8C986.8 249.3 1000.6 259.3 1005.3 278.9C1006.2 282.8 1006.6 287.3 1006.5 295.6C1006.5 305.9 1005.7 312.7 996.9 373.9C991.7 410.7 987.4 440.9 987.4 441C987.4 441.2 993.6 441.3 1001.2 441.3H1015L1024.7 371.8C1030 333.7 1034.6 298.8 1034.8 294.4C1035.3 286 1034.4 276.4 1032.3 268.1C1030.8 261.3 1024.6 248.8 1020.4 243.7C1011.2 232.6 997.3 225 980.8 222.1C974.4 221 956.6 220.1 951.8 220.7Z" fill="#353535"/>
<path fill-rule="evenodd" clip-rule="evenodd" d="M1404.9 221.4C1425.7 224.7 1441.5 232.6 1456.7 247.3L1464.1 254.3L1465 248.5C1465.4 245.2 1466.4 238.2 1467.1 232.9L1468.4 223.3H1482.2C1489.9 223.3 1496.1 223.4 1496.1 223.6C1496.1 223.7 1489.3 272.4 1480.9 331.6C1472.6 390.9 1465.8 439.9 1465.8 440.4C1465.8 441.1 1462.5 441.3 1451.7 441.3H1437.6L1438.1 439.3C1439.1 434.5 1441.7 413.9 1441.4 412.9C1441.3 412.1 1439.8 412.9 1436.3 415.9C1420.2 429.2 1401 438.5 1380.3 442.9C1373.5 444.4 1370 444.7 1356.4 444.7C1342.8 444.7 1339.4 444.4 1332.8 443C1294.3 434.7 1267.3 407.2 1259.8 369C1259.2 365.5 1258.8 358.4 1258.8 348.6C1258.8 336 1259.1 332 1260.5 325C1266.6 294.7 1281.9 269.7 1306.9 249.3C1325.6 233.9 1350.1 223.3 1371.9 220.8C1378.9 220 1398.6 220.3 1404.9 221.4ZM1362.7 249.7C1329.4 257.6 1300.3 284.8 1290 317.6C1285.3 332.4 1284.4 351.6 1287.8 364.1C1293.2 383.9 1307.4 401.4 1325.3 410.4C1342.6 419.1 1367.8 420.2 1388.7 413.3C1419 403.2 1445.5 376.1 1454.1 346.3C1461.3 321.2 1458.7 298.4 1446.4 279.9C1434.4 261.8 1415.1 249.7 1395.3 247.9C1381.9 246.7 1373.2 247.1 1362.7 249.7Z" fill="#353535"/>
<path d="M1596.8 221C1594.5 221.4 1589.5 223.3 1585.7 225.1C1580.1 227.9 1577.3 229.9 1571 235.9C1564.1 242.5 1563.3 243 1563.7 241C1564 239.8 1564.5 236.1 1565 232.7C1565.4 229.4 1566 225.9 1566.2 224.9L1566.5 223.3H1552.6H1538.6L1538.2 226.1C1537.1 232.5 1508.2 439.7 1508.2 440.5C1508.2 441.1 1511.7 441.3 1522 441.2L1535.8 441L1545.7 369C1551.3 329.4 1556.3 295 1557.1 292.3C1563.1 269.7 1585.7 247.5 1602.5 247.5C1612.1 247.5 1623.3 251.6 1632 258.2C1634.8 260.2 1637.2 261.9 1637.5 261.9C1637.8 261.8 1641.2 257.7 1645.1 252.8L1652.1 243.7H1656L1660 243.6L1656.6 240.6C1646.8 231.9 1631.5 223.6 1621.7 221.9C1615.3 220.7 1601.5 220.2 1596.8 221Z" fill="#353535"/>
<path d="M2035.1 221.7C2024.3 224 2015.3 228.2 2008.3 234.1L2004.6 237.2L2005 234.2C2005.3 232.6 2005.7 229.4 2006 227.2L2006.5 223.3H1992.8C1985.3 223.3 1979.1 223.3 1979 223.4C1979 223.6 1972.1 272.5 1963.6 332.3L1948.3 441L1962 441.2C1969.4 441.3 1975.7 441.3 1975.8 441.1C1976 440.9 1980.8 406.9 1986.6 365.5C1992.5 324.1 1997.7 288.1 1998.4 285.4C2002.7 268 2017.4 253.7 2035.6 248.9C2042.6 247.1 2054.7 246.8 2060.9 248.2C2071.2 250.6 2081.3 258.1 2086 266.9C2088.4 271.4 2090.4 279 2090.4 284.2C2090.4 286.3 2085.6 322 2079.7 363.5C2073.9 405 2069.1 439.5 2069.1 440.1C2069.1 441.2 2071 441.3 2082.8 441.3C2096.2 441.3 2096.4 441.3 2096.8 439.6C2096.9 438.7 2101.8 404.8 2107.4 364.5C2113 324 2118.1 288.6 2118.7 285.7C2122.6 266.6 2133.9 254 2151.4 249.4C2162.2 246.5 2178.9 246.7 2187.6 249.7C2201.3 254.5 2210.7 268.5 2210.7 284.1C2210.7 287 2205.9 323.4 2200.1 364.9C2194.3 406.4 2189.5 440.6 2189.5 440.9C2189.5 441.1 2195.7 441.3 2203.4 441.3H2217.1L2228 363.5C2238.7 287 2238.9 285.4 2238.6 275.4C2237.9 258.5 2233.6 248.3 2222.9 237.6C2217.4 232.1 2215.2 230.4 2209.2 227.6C2197.2 221.7 2191.2 220.6 2172.9 220.7C2159.4 220.7 2156.6 220.9 2151.5 222.3C2136.8 226.4 2127.6 231.7 2116.9 242C2112.4 246.2 2108.8 249.4 2108.7 249C2108.5 248.6 2106.7 246 2104.6 243C2097.9 233.3 2086.9 226.1 2074 222.4C2065.4 220.1 2044.3 219.6 2035.1 221.7Z" fill="#353535"/>
<path d="M539.2 224.3C539.2 225.4 510.3 432.2 509.3 438.5L508.8 441.3H522.7H536.6L551.6 334C560 275 566.9 225.9 567.1 224.9L567.4 223.3H553.3C541.5 223.3 539.2 223.4 539.2 224.3Z" fill="#353535"/>
<path d="M1093 224.2C1092.8 224.7 1086 273 1077.8 331.5C1069.7 390.1 1062.9 438.7 1062.7 439.6L1062.3 441.3H1076.3C1084.1 441.3 1090.3 441.1 1090.3 440.7C1090.3 440.4 1097.1 391.7 1105.5 332.4C1113.8 273.2 1120.6 224.3 1120.6 223.9C1120.6 222.8 1093.4 223.1 1093 224.2Z" fill="#353535"/>
<path d="M1696.7 224.1C1696.7 224.5 1689.9 273.4 1681.6 332.7C1673.2 392 1666.4 440.7 1666.4 440.9C1666.4 441.1 1672.6 441.3 1680.3 441.3H1694L1709 334C1717.4 275 1724.3 225.9 1724.5 224.9L1724.9 223.3H1710.8C1701.2 223.3 1696.7 223.5 1696.7 224.1Z" fill="#353535"/>
<path d="M1771.6 223.9C1771.6 224.2 1767.2 255.4 1761.6 293.3C1751.9 361.3 1751.7 362.4 1751.7 375.8C1751.7 391 1752.5 395.8 1756.7 407.1C1761.9 421.1 1771 431.2 1784.1 437.5C1800.3 445.4 1820.9 447.7 1842.6 443.9C1855 441.8 1867.6 436.7 1878 429.7C1888.1 422.9 1899.8 409.1 1906.3 396.1C1909.3 390.2 1913.5 377.7 1915 370.5C1915.6 367.5 1920.6 334.1 1926 296.3C1931.4 258.4 1936.1 226.5 1936.3 225.3L1936.7 223.3H1923C1909.6 223.3 1909.4 223.3 1909 224.9C1908.9 225.9 1904.3 257.9 1898.8 296C1892.9 337.7 1888.2 368.1 1887.1 372.4C1881.8 392.2 1870.8 406.1 1855.1 413C1846.6 416.8 1838.9 418.2 1825.8 418.2C1807.4 418.2 1798.5 415.4 1790.1 407C1784.8 401.6 1782.1 396.4 1780.4 388.2C1777.9 376.1 1778.4 370.8 1789.1 296.3C1794.4 258.4 1799.1 226.5 1799.3 225.3L1799.8 223.3H1785.7C1778 223.3 1771.6 223.6 1771.6 223.9Z" fill="#353535"/>
<path d="M223.1 0.0996094L156.5 133L375.5 305.1L223.1 0.0996094Z" fill="#FF1923"/>
<path d="M388.9 332L150.7 144.7L102 242.1L406 366.1L388.9 332Z" fill="#FF850C"/>
<path d="M414.6 383.5L96.3002 253.6L77.7002 290.6L424.6 403.4L414.6 383.5Z" fill="#0048E1"/>
<path d="M71.9004 302.1L31.9004 382.1L441 436.3L432.6 419.5L71.9004 302.1Z" fill="#500099"/>
<path d="M0 445.8L416.5 446L25.8 394.3L0 445.8Z" fill="#353535"/>
</g>
<defs>
<clipPath id="clip0_25177_43252">
<rect width="2350" height="541" fill="white"/>
</clipPath>
</defs>
</svg>
