<svg width="40" height="40" viewBox="0 0 40 40" fill="none" xmlns="http://www.w3.org/2000/svg">
<path fill-rule="evenodd" clip-rule="evenodd" d="M20 16.25C19.0054 16.25 18.0516 16.6451 17.3483 17.3483C16.6451 18.0516 16.25 19.0054 16.25 20C16.25 20.9946 16.6451 21.9484 17.3483 22.6517C18.0516 23.3549 19.0054 23.75 20 23.75C20.9946 23.75 21.9484 23.3549 22.6517 22.6517C23.3549 21.9484 23.75 20.9946 23.75 20C23.75 19.0054 23.3549 18.0516 22.6517 17.3483C21.9484 16.6451 20.9946 16.25 20 16.25ZM17.75 20C17.75 19.4033 17.9871 18.831 18.409 18.409C18.831 17.9871 19.4033 17.75 20 17.75C20.5967 17.75 21.169 17.9871 21.591 18.409C22.0129 18.831 22.25 19.4033 22.25 20C22.25 20.5967 22.0129 21.169 21.591 21.591C21.169 22.0129 20.5967 22.25 20 22.25C19.4033 22.25 18.831 22.0129 18.409 21.591C17.9871 21.169 17.75 20.5967 17.75 20Z" fill="#757575"/>
<path fill-rule="evenodd" clip-rule="evenodd" d="M19.9748 9.25C19.5298 9.25 19.1588 9.25 18.8548 9.27C18.544 9.28252 18.2375 9.34673 17.9478 9.46C17.614 9.59809 17.3107 9.80057 17.0553 10.0559C16.7998 10.3112 16.5971 10.6143 16.4588 10.948C16.3138 11.298 16.2748 11.668 16.2588 12.07C16.257 12.217 16.218 12.3611 16.1454 12.4889C16.0728 12.6168 15.9691 12.7241 15.8438 12.801C15.7146 12.8713 15.5697 12.9077 15.4226 12.9069C15.2756 12.906 15.1311 12.8679 15.0028 12.796C14.6468 12.608 14.3068 12.457 13.9308 12.407C13.5727 12.3599 13.2089 12.3838 12.8601 12.4773C12.5112 12.5708 12.1843 12.7321 11.8978 12.952C11.6552 13.1465 11.4466 13.38 11.2808 13.643C11.1108 13.897 10.9248 14.218 10.7028 14.603L10.6778 14.647C10.4548 15.032 10.2698 15.353 10.1358 15.627C9.99577 15.913 9.88577 16.195 9.84577 16.507C9.75038 17.23 9.94605 17.9613 10.3898 18.54C10.6208 18.841 10.9218 19.06 11.2618 19.274C11.3884 19.3491 11.4939 19.4551 11.5684 19.582C11.6429 19.709 11.684 19.8528 11.6878 20C11.684 20.1472 11.6429 20.291 11.5684 20.418C11.4939 20.5449 11.3884 20.6509 11.2618 20.726C10.9218 20.94 10.6218 21.159 10.3898 21.46C10.1699 21.7465 10.0086 22.0735 9.91508 22.4223C9.82157 22.7711 9.79768 23.1349 9.84477 23.493C9.88577 23.805 9.99477 24.087 10.1348 24.373C10.2698 24.647 10.4548 24.968 10.6778 25.353L10.7028 25.397C10.9248 25.782 11.1108 26.103 11.2808 26.357C11.4578 26.62 11.6478 26.857 11.8978 27.047C12.1842 27.2671 12.5111 27.4285 12.86 27.5222C13.2088 27.6159 13.5727 27.64 13.9308 27.593C14.3068 27.543 14.6468 27.393 15.0028 27.204C15.131 27.1323 15.2753 27.0943 15.4221 27.0934C15.569 27.0925 15.7137 27.1289 15.8428 27.199C15.9691 27.2749 16.0738 27.382 16.1468 27.51C16.2198 27.638 16.2587 27.7826 16.2598 27.93C16.2748 28.332 16.3138 28.702 16.4598 29.052C16.5979 29.3857 16.8003 29.689 17.0557 29.9445C17.311 30.2 17.6141 30.4027 17.9478 30.541C18.2378 30.661 18.5378 30.708 18.8548 30.729C19.1588 30.75 19.5298 30.75 19.9748 30.75H20.0248C20.4698 30.75 20.8408 30.75 21.1448 30.73C21.4628 30.708 21.7618 30.661 22.0518 30.54C22.3855 30.4019 22.6888 30.1994 22.9443 29.9441C23.1998 29.6888 23.4025 29.3857 23.5408 29.052C23.6858 28.702 23.7248 28.332 23.7408 27.93C23.7424 27.7828 23.7813 27.6385 23.8539 27.5105C23.9265 27.3825 24.0303 27.275 24.1558 27.198C24.285 27.1278 24.43 27.0916 24.577 27.0926C24.7241 27.0937 24.8685 27.132 24.9968 27.204C25.3528 27.392 25.6928 27.543 26.0688 27.592C26.7918 27.6874 27.523 27.4917 28.1018 27.048C28.3518 26.856 28.5418 26.62 28.7188 26.357C28.8888 26.103 29.0748 25.782 29.2968 25.397L29.3218 25.353C29.5448 24.968 29.7298 24.647 29.8638 24.373C30.0038 24.087 30.1138 23.804 30.1538 23.493C30.2492 22.77 30.0535 22.0387 29.6098 21.46C29.3788 21.159 29.0778 20.94 28.7378 20.726C28.6111 20.6509 28.5056 20.5449 28.4311 20.418C28.3566 20.291 28.3156 20.1472 28.3118 20C28.3118 19.722 28.4638 19.446 28.7378 19.274C29.0778 19.06 29.3778 18.841 29.6098 18.54C29.8297 18.2535 29.991 17.9265 30.0845 17.5777C30.178 17.2289 30.2019 16.8651 30.1548 16.507C30.1077 16.1996 30.0096 15.9022 29.8648 15.627C29.694 15.2948 29.5129 14.968 29.3218 14.647L29.2968 14.603C29.1141 14.2771 28.9214 13.9569 28.7188 13.643C28.5528 13.3804 28.3443 13.1472 28.1018 12.953C27.8154 12.7329 27.4884 12.5715 27.1396 12.4778C26.7908 12.3841 26.4269 12.36 26.0688 12.407C25.6928 12.457 25.3528 12.607 24.9968 12.796C24.8686 12.8677 24.7243 12.9057 24.5774 12.9066C24.4305 12.9075 24.2858 12.8711 24.1568 12.801C24.0311 12.7244 23.9269 12.6171 23.854 12.4893C23.7811 12.3614 23.7418 12.2172 23.7398 12.07C23.7248 11.668 23.6858 11.298 23.5398 10.948C23.4017 10.6142 23.1992 10.311 22.9439 10.0555C22.6886 9.8 22.3854 9.59731 22.0518 9.459C21.7618 9.339 21.4618 9.292 21.1448 9.271C20.8408 9.25 20.4698 9.25 20.0248 9.25H19.9748ZM18.5218 10.845C18.5988 10.813 18.7158 10.784 18.9568 10.767C19.2038 10.75 19.5238 10.75 19.9998 10.75C20.4758 10.75 20.7958 10.75 21.0428 10.767C21.2838 10.784 21.4008 10.813 21.4778 10.845C21.7848 10.972 22.0278 11.215 22.1548 11.522C22.1948 11.618 22.2278 11.769 22.2408 12.126C22.2708 12.918 22.6798 13.681 23.4058 14.1C24.1318 14.519 24.9968 14.492 25.6978 14.122C26.0138 13.955 26.1608 13.908 26.2648 13.895C26.5933 13.8516 26.9257 13.9404 27.1888 14.142C27.2548 14.193 27.3388 14.28 27.4738 14.48C27.6128 14.686 27.7728 14.963 28.0108 15.375C28.2488 15.787 28.4078 16.065 28.5168 16.287C28.6238 16.504 28.6568 16.62 28.6668 16.703C28.7102 17.0316 28.6213 17.3639 28.4198 17.627C28.3558 17.71 28.2418 17.814 27.9398 18.004C27.2678 18.426 26.8118 19.162 26.8118 20C26.8118 20.838 27.2678 21.574 27.9398 21.996C28.2418 22.186 28.3558 22.29 28.4198 22.373C28.6218 22.636 28.7098 22.968 28.6668 23.297C28.6568 23.38 28.6228 23.497 28.5168 23.713C28.4078 23.936 28.2488 24.213 28.0108 24.625C27.7728 25.037 27.6118 25.314 27.4738 25.52C27.3388 25.72 27.2548 25.807 27.1888 25.858C26.9257 26.0596 26.5933 26.1484 26.2648 26.105C26.1608 26.092 26.0148 26.045 25.6978 25.878C24.9978 25.508 24.1318 25.48 23.4058 25.899C22.6798 26.318 22.2708 27.082 22.2408 27.874C22.2278 28.231 22.1948 28.382 22.1548 28.478C22.092 28.6298 21.9998 28.7677 21.8837 28.8839C21.7675 29.0001 21.6296 29.0922 21.4778 29.155C21.4008 29.187 21.2838 29.216 21.0428 29.233C20.7958 29.25 20.4758 29.25 19.9998 29.25C19.5238 29.25 19.2038 29.25 18.9568 29.233C18.7158 29.216 18.5988 29.187 18.5218 29.155C18.37 29.0922 18.2321 29.0001 18.1159 28.8839C17.9997 28.7677 17.9076 28.6298 17.8448 28.478C17.8048 28.382 17.7718 28.231 17.7588 27.874C17.7288 27.082 17.3198 26.319 16.5938 25.9C15.8678 25.481 15.0028 25.508 14.3018 25.878C13.9858 26.045 13.8388 26.092 13.7348 26.105C13.4062 26.1484 13.0739 26.0596 12.8108 25.858C12.7448 25.807 12.6608 25.72 12.5258 25.52C12.3377 25.2272 12.1586 24.9288 11.9888 24.625C11.7508 24.213 11.5918 23.935 11.4828 23.713C11.3758 23.496 11.3428 23.38 11.3328 23.297C11.2894 22.9684 11.3782 22.6361 11.5798 22.373C11.6438 22.29 11.7578 22.186 12.0598 21.996C12.7318 21.574 13.1878 20.838 13.1878 20C13.1878 19.162 12.7318 18.426 12.0598 18.004C11.7578 17.814 11.6438 17.71 11.5798 17.627C11.3782 17.3639 11.2894 17.0316 11.3328 16.703C11.3428 16.62 11.3768 16.503 11.4828 16.287C11.5918 16.064 11.7508 15.787 11.9888 15.375C12.2268 14.963 12.3878 14.686 12.5258 14.48C12.6608 14.28 12.7448 14.193 12.8108 14.142C13.0739 13.9404 13.4062 13.8516 13.7348 13.895C13.8388 13.908 13.9848 13.955 14.3018 14.122C15.0018 14.492 15.8678 14.52 16.5938 14.1C17.3198 13.681 17.7288 12.918 17.7588 12.126C17.7718 11.769 17.8048 11.618 17.8448 11.522C17.9718 11.215 18.2148 10.972 18.5218 10.845Z" fill="#757575"/>
</svg>
